<?xml version="1.0" encoding="UTF-8"?>
<svg width="15px" height="15px" viewBox="0 0 15 15" version="1.1" xmlns="http://www.w3.org/2000/svg" xmlns:xlink="http://www.w3.org/1999/xlink">
    <title>Artboard</title>
    <g id="Artboard" stroke="none" stroke-width="1" fill="none" fill-rule="evenodd">
        <g id="Group" fill="#00C57D" fill-rule="nonzero">
            <path d="M7.5,0 C3.36,0 0,3.36 0,7.5 C0,11.64 3.36,15 7.5,15 C11.64,15 15,11.64 15,7.5 C15,3.36 11.64,0 7.5,0 Z M11.94,5.94 L6.94,10.94 C6.82,11.06 6.66,11.12 6.5,11.12 C6.34,11.12 6.18,11.06 6.06,10.94 L3.56,8.44 C3.32,8.2 3.32,7.8 3.56,7.56 C3.8,7.32 4.2,7.32 4.44,7.56 L6.5,9.62 L11.06,5.06 C11.3,4.82 11.7,4.82 11.94,5.06 C12.19,5.3 12.19,5.7 11.94,5.94 L11.94,5.94 Z" id="Shape"></path>
        </g>
    </g>
</svg>
